<svg width="24" height="24" fill="none" viewBox="0 0 24 24" class="ZDI ZDI--Weibo24"><path fill="#FB6622" d="M15.518 3.06c8.834-.854 7.395 7.732 7.394 7.731-.625 1.44-1.673.31-1.673.31.596-7.52-5.692-6.33-5.692-6.33-.898-1.067-.03-1.71-.03-1.71Zm4.13 6.985c-.66 1.01-1.376.126-1.375.126.205-3.179-2.396-2.598-2.396-2.598-.72-.765-.091-1.346-.091-1.346 4.882-.55 3.863 3.818 3.863 3.818ZM5.318 7.52s4.615-3.86 6.443-1.328c0 0 .662 1.08-.111 2.797.003-.003 3.723-1.96 5.408.16 0 0 .848 1.094-.191 2.648 0 0 2.918-.099 2.918 2.715 0 2.811-4.104 6.44-9.315 6.44-5.214 0-8.026-2.092-8.596-3.102 0 0-3.475-4.495 3.444-10.33Zm10.448 7.792s.232-4.41-5.71-4.207c-6.652.231-6.58 4.654-6.58 4.654.022.39.098 3.713 5.843 3.713 5.98 0 6.447-4.16 6.447-4.16Zm-9.882.86s-.06-3.632 3.804-3.56c3.412.06 3.206 3.164 3.206 3.164s-.026 2.98-3.684 2.98c-3.288 0-3.326-2.584-3.326-2.584Zm2.528 1.037c.672 0 1.212-.447 1.212-.998 0-.55-.543-.998-1.212-.998-.672 0-1.215.447-1.215.998 0 .551.546.998 1.215.998Z" clip-rule="evenodd"></path></svg>
